<svg xmlns="http://www.w3.org/2000/svg" viewBox="0 0 512 512"><path d="M 225.88 132.91 A 126.72 126.72 0 0 1 379.09 286.12 L 328.73 273.80 A 74.88 74.88 0 0 0 238.20 183.27 Z" fill="#4B4FA6"/><path d="M 377.66 291.46 A 126.72 126.72 0 0 1 347.54 343.63 L 310.09 307.78 A 74.88 74.88 0 0 0 327.89 276.95 Z" fill="#C98A3E"/><path d="M 343.63 347.54 A 126.72 126.72 0 0 1 225.88 379.09 L 238.20 328.73 A 74.88 74.88 0 0 0 307.78 310.09 Z" fill="#2E8B8B"/><path d="M 220.54 377.66 A 126.72 126.72 0 0 1 195.05 367.10 L 219.98 321.65 A 74.88 74.88 0 0 0 235.05 327.89 Z" fill="#B5624F"/><path d="M 190.26 364.33 A 126.72 126.72 0 0 1 129.31 258.76 L 181.14 257.63 A 74.88 74.88 0 0 0 217.15 320.02 Z" fill="#3E7CB1"/><path d="M 129.31 253.24 A 126.72 126.72 0 0 1 220.54 134.34 L 235.05 184.11 A 74.88 74.88 0 0 0 181.14 254.37 Z" fill="#6FA85B"/><circle cx="256.0" cy="256.0" r="69.1" fill="#10162A" stroke="#2A3352" stroke-width="4.3"/><circle cx="256.0" cy="256.0" r="10.1" fill="#F2E8D5"/><path d="M 236.6 103.4 L 275.4 103.4 L 256.0 135.0 Z" fill="#F2E8D5" stroke="#F2E8D5" stroke-width="7.2" stroke-linejoin="round"/></svg>