<svg xmlns="http://www.w3.org/2000/svg" viewBox="0 0 512 512"><rect x="46.1" y="46.1" width="419.8" height="419.8" rx="94.3" fill="#0A0D18"/><path d="M 221.70 115.82 A 144.32 144.32 0 0 1 396.18 290.30 L 338.84 276.27 A 85.28 85.28 0 0 0 235.73 173.16 Z" fill="#4B4FA6"/><path d="M 394.55 296.38 A 144.32 144.32 0 0 1 360.25 355.80 L 317.60 314.97 A 85.28 85.28 0 0 0 337.87 279.86 Z" fill="#C98A3E"/><path d="M 355.80 360.25 A 144.32 144.32 0 0 1 221.70 396.18 L 235.73 338.84 A 85.28 85.28 0 0 0 314.97 317.60 Z" fill="#2E8B8B"/><path d="M 215.62 394.55 A 144.32 144.32 0 0 1 186.58 382.53 L 214.98 330.77 A 85.28 85.28 0 0 0 232.14 337.87 Z" fill="#B5624F"/><path d="M 181.13 379.38 A 144.32 144.32 0 0 1 111.71 259.15 L 170.74 257.86 A 85.28 85.28 0 0 0 211.76 328.91 Z" fill="#3E7CB1"/><path d="M 111.71 252.85 A 144.32 144.32 0 0 1 215.62 117.45 L 232.14 174.13 A 85.28 85.28 0 0 0 170.74 254.14 Z" fill="#6FA85B"/><circle cx="256.0" cy="256.0" r="78.7" fill="#10162A" stroke="#2A3352" stroke-width="4.9"/><circle cx="256.0" cy="256.0" r="11.5" fill="#F2E8D5"/><path d="M 233.9 82.2 L 278.1 82.2 L 256.0 118.2 Z" fill="#F2E8D5" stroke="#F2E8D5" stroke-width="8.2" stroke-linejoin="round"/></svg>