<svg xmlns="http://www.w3.org/2000/svg" viewBox="0 0 512 512"><rect width="512" height="512" fill="#0A0D18"/><path d="M 223.37 122.65 A 137.28 137.28 0 0 1 389.35 288.63 L 334.80 275.28 A 81.12 81.12 0 0 0 236.72 177.20 Z" fill="#4B4FA6"/><path d="M 387.80 294.41 A 137.28 137.28 0 0 1 355.17 350.93 L 314.60 312.10 A 81.12 81.12 0 0 0 333.88 278.70 Z" fill="#C98A3E"/><path d="M 350.93 355.17 A 137.28 137.28 0 0 1 223.37 389.35 L 236.72 334.80 A 81.12 81.12 0 0 0 312.10 314.60 Z" fill="#2E8B8B"/><path d="M 217.59 387.80 A 137.28 137.28 0 0 1 189.97 376.36 L 216.98 327.12 A 81.12 81.12 0 0 0 233.30 333.88 Z" fill="#B5624F"/><path d="M 184.78 373.36 A 137.28 137.28 0 0 1 118.75 258.99 L 174.90 257.77 A 81.12 81.12 0 0 0 213.92 325.35 Z" fill="#3E7CB1"/><path d="M 118.75 253.01 A 137.28 137.28 0 0 1 217.59 124.20 L 233.30 178.12 A 81.12 81.12 0 0 0 174.90 254.23 Z" fill="#6FA85B"/><circle cx="256.0" cy="256.0" r="74.9" fill="#10162A" stroke="#2A3352" stroke-width="4.7"/><circle cx="256.0" cy="256.0" r="10.9" fill="#F2E8D5"/><path d="M 234.9 90.6 L 277.1 90.6 L 256.0 125.0 Z" fill="#F2E8D5" stroke="#F2E8D5" stroke-width="7.8" stroke-linejoin="round"/></svg>