<svg xmlns="http://www.w3.org/2000/svg" viewBox="0 0 512 512"><rect x="0.0" y="0.0" width="512.0" height="512.0" rx="115.0" fill="#F2F3F8"/><path d="M 214.17 85.04 A 176.00 176.00 0 0 1 426.96 297.83 L 357.02 280.72 A 104.00 104.00 0 0 0 231.28 154.98 Z" fill="#4B4FA6"/><path d="M 424.97 305.25 A 176.00 176.00 0 0 1 383.14 377.71 L 331.13 327.92 A 104.00 104.00 0 0 0 355.85 285.10 Z" fill="#C98A3E"/><path d="M 377.71 383.14 A 176.00 176.00 0 0 1 214.17 426.96 L 231.28 357.02 A 104.00 104.00 0 0 0 327.92 331.13 Z" fill="#2E8B8B"/><path d="M 206.75 424.97 A 176.00 176.00 0 0 1 171.35 410.30 L 205.98 347.18 A 104.00 104.00 0 0 0 226.90 355.85 Z" fill="#B5624F"/><path d="M 164.70 406.46 A 176.00 176.00 0 0 1 80.04 259.84 L 152.02 258.27 A 104.00 104.00 0 0 0 202.05 344.91 Z" fill="#3E7CB1"/><path d="M 80.04 252.16 A 176.00 176.00 0 0 1 206.75 87.03 L 226.90 156.15 A 104.00 104.00 0 0 0 152.02 253.73 Z" fill="#6FA85B"/><circle cx="256.0" cy="256.0" r="96.0" fill="#10162A" stroke="#DCE0EE" stroke-width="6.0"/><circle cx="256.0" cy="256.0" r="14.0" fill="#F2E8D5"/><path d="M 229.0 44.0 L 283.0 44.0 L 256.0 88.0 Z" fill="#2A3050" stroke="#2A3050" stroke-width="10.0" stroke-linejoin="round"/></svg>